<?xml version="1.0" encoding="UTF-8"?>
<svg width="48" height="48" viewBox="0 0 48 48" fill="none" xmlns="http://www.w3.org/2000/svg">
  <!-- Fondo circular -->
  <circle cx="24" cy="24" r="22" fill="#4F46E5"/>
  
  <!-- Silueta de mascota (perro) -->
  <path d="M34 20C34 18.9 33.1 18 32 18H30L28 14H20L18 18H16C14.9 18 14 18.9 14 20V32C14 33.1 14.9 34 16 34H32C33.1 34 34 33.1 34 32V20Z" fill="white"/>
  
  <!-- Detalles de la cara -->
  <circle cx="20" cy="25" r="2" fill="#4F46E5"/>
  <circle cx="28" cy="25" r="2" fill="#4F46E5"/>
  <path d="M24 30C25.6569 30 27 28.6569 27 27H21C21 28.6569 22.3431 30 24 30Z" fill="#4F46E5"/>
</svg> 